<svg width="0" height="0" class="hidden">
  <symbol xmlns="http://www.w3.org/2000/svg" fill="none" stroke="currentColor" stroke-width="2"
    stroke-linecap="round" stroke-linejoin="round" viewBox="0 0 24 24" id="trash">
    <path d="M3 6h18"></path>
    <path d="M19 6v14c0 1-1 2-2 2H7c-1 0-2-1-2-2V6"></path>
    <path d="M8 6V4c0-1 1-2 2-2h4c1 0 2 1 2 2v2"></path>
  </symbol>
  <symbol xmlns="http://www.w3.org/2000/svg" fill="none" stroke="currentColor" stroke-width="2"
    stroke-linecap="round" stroke-linejoin="round" viewBox="0 0 24 24" id="loader-circle">
    <path d="M21 12a9 9 0 1 1-6.219-8.56"></path>
  </symbol>
  <symbol xmlns="http://www.w3.org/2000/svg" fill="none" stroke="currentColor" stroke-width="2"
    stroke-linecap="round" stroke-linejoin="round" viewBox="0 0 24 24" id="pencil-line">
    <path d="M12 20h9"></path>
    <path
      d="M16.376 3.622a1 1 0 0 1 3.002 3.002L7.368 18.635a2 2 0 0 1-.855.506l-2.872.838a.5.5 0 0 1-.62-.62l.838-2.872a2 2 0 0 1 .506-.854z"></path>
    <path d="m15 5 3 3"></path>
  </symbol>
  <symbol xmlns="http://www.w3.org/2000/svg" fill="none" stroke="currentColor" stroke-width="2"
    stroke-linecap="round" stroke-linejoin="round" viewBox="0 0 24 24" id="plus">
    <path d="M5 12h14"></path>
    <path d="M12 5v14"></path>
  </symbol>
  <symbol xmlns="http://www.w3.org/2000/svg" fill="none" stroke="currentColor" stroke-width="2"
    stroke-linecap="round" stroke-linejoin="round" viewBox="0 0 24 24" id="bookmark">
    <path d="m19 21-7-4-7 4V5a2 2 0 0 1 2-2h10a2 2 0 0 1 2 2v16z"></path>
  </symbol>
</svg>
